<svg width="612" height="612" xmlns="http://www.w3.org/2000/svg">

 <g>
  <title>background</title>
  <rect fill="none" id="canvas_background" height="402" width="582" y="-1" x="-1"/>
 </g>
 <g>
  <title>Layer 1</title>
  <path fill="#ffd200" id="svg_3" d="m535.5,0l-459,0c-42.247,0 -76.5,34.253 -76.5,76.5l0,459c0,42.247 34.253,76.5 76.5,76.5l459,0c42.247,0 76.5,-34.253 76.5,-76.5l0,-459c0,-42.247 -34.253,-76.5 -76.5,-76.5zm-104.499,297.126c-7.478,7.478 -19.584,7.478 -27.043,0l-78.833,-78.833l0,202.457c0,10.557 -8.568,19.125 -19.125,19.125c-10.557,0 -19.125,-8.568 -19.125,-19.125l0,-202.457l-78.814,78.814c-7.478,7.478 -19.584,7.478 -27.043,0c-7.478,-7.478 -7.478,-19.584 0,-27.043l108.19,-108.19c4.59,-4.59 10.863,-6.005 16.812,-4.973c5.929,-1.052 12.221,0.383 16.811,4.973l108.19,108.19c7.439,7.478 7.439,19.584 -0.02,27.062z"/>
 </g>
</svg>